<?xml version="1.0" encoding="UTF-8"?>
<svg width="120.98mm" height="139.68mm" version="1.1" viewBox="0 0 120.98 139.68" xmlns="http://www.w3.org/2000/svg">
<g transform="translate(-38.943 -49.366)">
<path d="m43.199 86.775c2e-3 21.65 0.0039 43.299 0.0059 64.949l56.256 32.475c18.748-10.825 37.496-21.65 56.244-32.475-3e-3 -21.65-5e-3 -43.301-8e-3 -64.951-18.751-10.825-37.503-21.65-56.254-32.475-18.748 10.826-37.496 21.651-56.244 32.477zm116.72 67.345-60.48 34.928-60.488-34.913-0.00873-69.841 60.48-34.928 60.488 34.913z" fill="#f7b633"/>
<g transform="matrix(.41202 0 0 .41202 -28.72 -73.032)" fill="#008000" style="shape-inside:url(#rect338);white-space:pre" aria-label="A">
<path d="m367.94 530.57h-24.656l-10.219-30.469h-49.219l-10.031 30.469h-19.688l42.469-127.97h28.406zm-41.062-48.938-18.656-57.094-18.656 57.094z" fill="#f7b633"/>
</g>
<text transform="scale(.26458)" fill="#008000" style="shape-inside:url(#rect394);white-space:pre" xml:space="preserve"/>
</g>
</svg>
